STARTFONT 2.1
FONT -Monotype-Times New Roman-Regular-R-Normal--19-140-100-100-P-93-iso8859-5
SIZE 14 100 100
FONTBOUNDINGBOX 22 21 -2 -4

STARTPROPERTIES 24
FOUNDRY "Monotype"
FAMILY_NAME "Times New Roman"
WEIGHT_NAME "Regular"
SLANT "R"
SETWIDTH_NAME "Normal"
ADD_STYLE_NAME ""
PIXEL_SIZE 19
POINT_SIZE 140
RESOLUTION_X 100
RESOLUTION_Y 100
SPACING "P"
AVERAGE_WIDTH 93
CHARSET_REGISTRY "iso8859"
CHARSET_ENCODING "5"
FACE_NAME "Times New Roman ISO Latin Cyrillic"
_DEC_DEVICE_FONTNAMES "PS=timesnewroman-latcyrillic"
COPYRIGHT "Copyright (c) 1994 Monotype Typography Ltd."
CAP_HEIGHT 15
X_HEIGHT 10
WEIGHT 10
QUAD_WIDTH 12
DEFAULT_CHAR 160
FONT_DESCENT 5
FONT_ASCENT 17
ENDPROPERTIES

CHARS 191

STARTCHAR space
ENCODING 32
SWIDTH 250 0
DWIDTH 5 0
BBX 0 0 0 0
BITMAP
ENDCHAR

STARTCHAR exclam
ENCODING 33
SWIDTH 271 0
DWIDTH 5 0
BBX 2 14 1 0
BITMAP
40
C0
C0
C0
C0
C0
C0
40
40
40
00
00
C0
C0
ENDCHAR

STARTCHAR quotedbl
ENCODING 34
SWIDTH 406 0
DWIDTH 8 0
BBX 5 5 1 8
BITMAP
D8
D8
D8
48
48
ENDCHAR

STARTCHAR numbersign
ENCODING 35
SWIDTH 667 0
DWIDTH 13 0
BBX 10 14 1 -2
BITMAP
1080
1080
1080
1080
FFC0
2100
2100
2100
2100
FFC0
4200
4200
4200
4200
ENDCHAR

STARTCHAR dollar
ENCODING 36
SWIDTH 500 0
DWIDTH 10 0
BBX 7 15 1 -1
BITMAP
10
3C
52
D2
D0
D0
78
3C
16
16
16
96
94
78
10
ENDCHAR

STARTCHAR percent
ENCODING 37
SWIDTH 823 0
DWIDTH 16 0
BBX 15 14 0 0
BITMAP
7008
D810
D820
D840
D840
D880
D91C
7136
0236
0436
0436
0836
1036
201C
ENDCHAR

STARTCHAR ampersand
ENCODING 38
SWIDTH 771 0
DWIDTH 15 0
BBX 14 14 1 0
BITMAP
0700
0980
1980
1980
1900
0E78
1C20
2E20
6740
C340
C380
C1C4
E6F8
7830
ENDCHAR

STARTCHAR quoteright
ENCODING 39
SWIDTH 271 0
DWIDTH 5 0
BBX 2 4 2 10
BITMAP
C0
C0
40
80
ENDCHAR

STARTCHAR parenleft
ENCODING 40
SWIDTH 333 0
DWIDTH 6 0
BBX 5 18 1 -4
BITMAP
08
10
20
20
40
40
C0
C0
C0
C0
C0
C0
40
40
20
20
10
08
ENDCHAR

STARTCHAR parenright
ENCODING 41
SWIDTH 333 0
DWIDTH 6 0
BBX 5 18 1 -4
BITMAP
80
40
20
20
10
10
18
18
18
18
18
18
10
10
20
20
40
80
ENDCHAR

STARTCHAR asterisk
ENCODING 42
SWIDTH 500 0
DWIDTH 10 0
BBX 6 7 2 7
BITMAP
30
30
B4
78
78
B4
30
ENDCHAR

STARTCHAR plus
ENCODING 43
SWIDTH 667 0
DWIDTH 13 0
BBX 9 9 2 0
BITMAP
0800
0800
0800
0800
FF80
0800
0800
0800
0800
ENDCHAR

STARTCHAR comma
ENCODING 44
SWIDTH 271 0
DWIDTH 5 0
BBX 2 4 1 -2
BITMAP
C0
C0
40
80
ENDCHAR

STARTCHAR minus
ENCODING 45
SWIDTH 667 0
DWIDTH 13 0
BBX 10 1 1 5
BITMAP
FFC0
ENDCHAR

STARTCHAR period
ENCODING 46
SWIDTH 271 0
DWIDTH 5 0
BBX 2 2 1 0
BITMAP
C0
C0
ENDCHAR

STARTCHAR slash
ENCODING 47
SWIDTH 281 0
DWIDTH 5 0
BBX 7 13 -1 0
BITMAP
02
02
04
04
08
08
10
10
20
20
40
40
80
ENDCHAR

STARTCHAR zero
ENCODING 48
SWIDTH 500 0
DWIDTH 10 0
BBX 8 14 1 0
BITMAP
18
24
66
C3
C3
C3
C3
C3
C3
C3
C3
66
24
18
ENDCHAR

STARTCHAR one
ENCODING 49
SWIDTH 500 0
DWIDTH 10 0
BBX 5 14 2 0
BITMAP
10
F0
30
30
30
30
30
30
30
30
30
30
30
78
ENDCHAR

STARTCHAR two
ENCODING 50
SWIDTH 500 0
DWIDTH 10 0
BBX 9 14 0 0
BITMAP
1C00
3E00
4700
4300
0300
0300
0200
0600
0400
0800
1000
2080
7F00
FE00
ENDCHAR

STARTCHAR three
ENCODING 51
SWIDTH 500 0
DWIDTH 10 0
BBX 7 14 1 0
BITMAP
3C
4E
86
06
04
08
3C
0E
06
06
06
04
C8
F0
ENDCHAR

STARTCHAR four
ENCODING 52
SWIDTH 500 0
DWIDTH 10 0
BBX 8 14 1 0
BITMAP
02
06
0E
0E
16
26
46
86
FF
FF
06
06
06
06
ENDCHAR

STARTCHAR five
ENCODING 53
SWIDTH 500 0
DWIDTH 10 0
BBX 7 14 1 0
BITMAP
1E
3C
40
60
F8
1C
0E
06
06
06
06
04
C8
F0
ENDCHAR

STARTCHAR six
ENCODING 54
SWIDTH 500 0
DWIDTH 10 0
BBX 8 14 1 0
BITMAP
07
18
30
60
60
DC
E6
C3
C3
C3
C3
66
24
18
ENDCHAR

STARTCHAR seven
ENCODING 55
SWIDTH 500 0
DWIDTH 10 0
BBX 8 14 1 0
BITMAP
7F
7E
82
02
04
04
04
08
08
08
08
10
10
10
ENDCHAR

STARTCHAR eight
ENCODING 56
SWIDTH 500 0
DWIDTH 10 0
BBX 7 14 1 0
BITMAP
38
44
C6
C6
C6
64
38
4C
C6
C6
C6
C6
44
38
ENDCHAR

STARTCHAR nine
ENCODING 57
SWIDTH 500 0
DWIDTH 10 0
BBX 8 14 1 0
BITMAP
18
24
66
C3
C3
C3
C3
67
3B
06
06
0C
18
E0
ENDCHAR

STARTCHAR colon
ENCODING 58
SWIDTH 271 0
DWIDTH 5 0
BBX 2 9 1 0
BITMAP
C0
C0
00
00
00
00
00
C0
C0
ENDCHAR

STARTCHAR semicolon
ENCODING 59
SWIDTH 271 0
DWIDTH 5 0
BBX 2 11 1 -2
BITMAP
C0
C0
00
00
00
00
00
C0
C0
40
80
ENDCHAR

STARTCHAR less
ENCODING 60
SWIDTH 667 0
DWIDTH 13 0
BBX 9 10 2 0
BITMAP
0080
0300
0C00
3000
C000
C000
3000
0C00
0300
0080
ENDCHAR

STARTCHAR equal
ENCODING 61
SWIDTH 667 0
DWIDTH 13 0
BBX 10 5 1 3
BITMAP
FFC0
0000
0000
0000
FFC0
ENDCHAR

STARTCHAR greater
ENCODING 62
SWIDTH 667 0
DWIDTH 13 0
BBX 9 10 2 0
BITMAP
8000
6000
1800
0600
0180
0180
0600
1800
6000
8000
ENDCHAR

STARTCHAR question
ENCODING 63
SWIDTH 385 0
DWIDTH 7 0
BBX 6 14 1 0
BITMAP
70
88
CC
CC
0C
08
08
10
10
20
20
00
60
60
ENDCHAR

STARTCHAR at
ENCODING 64
SWIDTH 917 0
DWIDTH 17 0
BBX 16 18 0 -4
BITMAP
03F0
0408
0804
1002
2002
40D1
4131
8331
8631
8661
8C62
8CE2
4D6C
4631
2001
3006
0C18
03E0
ENDCHAR

STARTCHAR A
ENCODING 65
SWIDTH 771 0
DWIDTH 15 0
BBX 14 14 0 0
BITMAP
0100
0300
0300
0580
0580
08C0
08C0
1060
1FE0
1060
2030
2030
4018
E03C
ENDCHAR

STARTCHAR B
ENCODING 66
SWIDTH 667 0
DWIDTH 13 0
BBX 10 14 2 0
BITMAP
FF00
6180
60C0
60C0
60C0
6180
7F00
6180
60C0
60C0
60C0
60C0
6180
FF00
ENDCHAR

STARTCHAR C
ENCODING 67
SWIDTH 719 0
DWIDTH 14 0
BBX 12 14 1 0
BITMAP
0FD0
3030
6010
6010
C000
C000
C000
C000
C000
C000
6000
6010
3060
0F80
ENDCHAR

STARTCHAR D
ENCODING 68
SWIDTH 823 0
DWIDTH 16 0
BBX 13 14 2 0
BITMAP
FF80
6060
6030
6030
6018
6018
6018
6018
6018
6018
6030
6030
6060
FF80
ENDCHAR

STARTCHAR E
ENCODING 69
SWIDTH 667 0
DWIDTH 13 0
BBX 11 14 2 0
BITMAP
FFC0
6040
6040
6000
6100
6100
7F00
6100
6100
6000
6020
6020
6040
FFC0
ENDCHAR

STARTCHAR F
ENCODING 70
SWIDTH 667 0
DWIDTH 13 0
BBX 10 14 2 0
BITMAP
FFC0
6040
6040
6000
6100
6100
7F00
6100
6100
6000
6000
6000
6000
F000
ENDCHAR

STARTCHAR G
ENCODING 71
SWIDTH 823 0
DWIDTH 16 0
BBX 14 14 1 0
BITMAP
0FE8
3018
6008
6008
C000
C000
C03C
C018
C018
C018
6018
6018
1030
0FC0
ENDCHAR

STARTCHAR H
ENCODING 72
SWIDTH 823 0
DWIDTH 16 0
BBX 12 14 2 0
BITMAP
F0F0
6060
6060
6060
6060
6060
7FE0
6060
6060
6060
6060
6060
6060
F0F0
ENDCHAR

STARTCHAR I
ENCODING 73
SWIDTH 385 0
DWIDTH 7 0
BBX 4 14 1 0
BITMAP
F0
60
60
60
60
60
60
60
60
60
60
60
60
F0
ENDCHAR

STARTCHAR J
ENCODING 74
SWIDTH 438 0
DWIDTH 8 0
BBX 6 14 1 0
BITMAP
3C
18
18
18
18
18
18
18
18
18
18
18
D0
E0
ENDCHAR

STARTCHAR K
ENCODING 75
SWIDTH 823 0
DWIDTH 16 0
BBX 13 14 2 0
BITMAP
F0F0
6040
6080
6100
6200
6400
7800
6C00
6600
6300
6180
60C0
6060
F0F8
ENDCHAR

STARTCHAR L
ENCODING 76
SWIDTH 667 0
DWIDTH 13 0
BBX 11 14 2 0
BITMAP
F000
6000
6000
6000
6000
6000
6000
6000
6000
6000
6020
6020
6040
FFC0
ENDCHAR

STARTCHAR M
ENCODING 77
SWIDTH 990 0
DWIDTH 19 0
BBX 15 14 2 0
BITMAP
E00E
701C
701C
582C
582C
582C
4C4C
4C4C
4C4C
468C
468C
430C
430C
E21E
ENDCHAR

STARTCHAR N
ENCODING 78
SWIDTH 823 0
DWIDTH 16 0
BBX 14 14 1 0
BITMAP
E01C
3008
3808
2C08
2608
2308
2308
2188
20C8
2068
2038
2018
2008
7008
ENDCHAR

STARTCHAR O
ENCODING 79
SWIDTH 771 0
DWIDTH 15 0
BBX 13 14 1 0
BITMAP
0F80
3060
6030
6030
C018
C018
C018
C018
C018
C018
6030
6030
3060
0F80
ENDCHAR

STARTCHAR P
ENCODING 80
SWIDTH 604 0
DWIDTH 11 0
BBX 9 14 2 0
BITMAP
FC00
6300
6180
6180
6180
6180
6300
7C00
6000
6000
6000
6000
6000
F000
ENDCHAR

STARTCHAR Q
ENCODING 81
SWIDTH 771 0
DWIDTH 15 0
BBX 13 17 1 -3
BITMAP
0F80
3060
6030
6030
C018
C018
C018
C018
C018
C018
6030
6030
3060
0F80
0700
0380
00F0
ENDCHAR

STARTCHAR R
ENCODING 82
SWIDTH 771 0
DWIDTH 15 0
BBX 13 14 2 0
BITMAP
FE00
6180
60C0
60C0
60C0
60C0
6180
7E00
6600
6300
6180
60C0
6060
F078
ENDCHAR

STARTCHAR S
ENCODING 83
SWIDTH 552 0
DWIDTH 10 0
BBX 9 14 1 0
BITMAP
3D00
6300
C100
C100
E000
7000
3C00
1E00
0700
0380
8180
8180
C300
BE00
ENDCHAR

STARTCHAR T
ENCODING 84
SWIDTH 667 0
DWIDTH 13 0
BBX 12 14 0 0
BITMAP
FFF0
8610
8610
0600
0600
0600
0600
0600
0600
0600
0600
0600
0600
0F00
ENDCHAR

STARTCHAR U
ENCODING 85
SWIDTH 823 0
DWIDTH 16 0
BBX 13 14 2 0
BITMAP
F038
6010
6010
6010
6010
6010
6010
6010
6010
6010
6010
3020
1840
0F80
ENDCHAR

STARTCHAR V
ENCODING 86
SWIDTH 719 0
DWIDTH 14 0
BBX 12 14 1 0
BITMAP
F070
6020
6020
3040
3040
3040
1880
1880
1880
0D00
0D00
0600
0600
0200
ENDCHAR

STARTCHAR W
ENCODING 87
SWIDTH 990 0
DWIDTH 19 0
BBX 17 14 1 0
BITMAP
F3E380
618100
618100
30C200
30C200
30C200
196400
196400
1A6800
0E3800
0E3800
0C3000
041000
041000
ENDCHAR

STARTCHAR X
ENCODING 88
SWIDTH 771 0
DWIDTH 15 0
BBX 14 14 0 0
BITMAP
F83C
3010
1820
0C40
0C40
0680
0300
0300
0580
08C0
08C0
1060
2030
F07C
ENDCHAR

STARTCHAR Y
ENCODING 89
SWIDTH 771 0
DWIDTH 15 0
BBX 14 14 1 0
BITMAP
F01C
6008
3010
1820
1820
0C40
0680
0300
0300
0300
0300
0300
0300
0780
ENDCHAR

STARTCHAR Z
ENCODING 90
SWIDTH 667 0
DWIDTH 13 0
BBX 12 14 1 0
BITMAP
3FE0
20C0
40C0
0180
0300
0300
0600
0C00
0C00
1800
3010
3010
6020
FFE0
ENDCHAR

STARTCHAR bracketleft
ENCODING 91
SWIDTH 271 0
DWIDTH 5 0
BBX 4 17 1 -3
BITMAP
F0
C0
C0
C0
C0
C0
C0
C0
C0
C0
C0
C0
C0
C0
C0
C0
F0
ENDCHAR

STARTCHAR backslash
ENCODING 92
SWIDTH 281 0
DWIDTH 5 0
BBX 7 13 -1 0
BITMAP
80
40
40
20
20
10
10
08
08
04
04
02
02
ENDCHAR

STARTCHAR bracketright
ENCODING 93
SWIDTH 271 0
DWIDTH 5 0
BBX 4 17 0 -3
BITMAP
F0
30
30
30
30
30
30
30
30
30
30
30
30
30
30
30
F0
ENDCHAR

STARTCHAR asciicircum
ENCODING 94
SWIDTH 583 0
DWIDTH 9 0
BBX 7 7 1 6
BITMAP
10
28
28
44
44
82
82
ENDCHAR

STARTCHAR underscore
ENCODING 95
SWIDTH 500 0
DWIDTH 10 0
BBX 10 1 0 -2
BITMAP
FFC0
ENDCHAR

STARTCHAR quoteleft
ENCODING 96
SWIDTH 271 0
DWIDTH 5 0
BBX 2 4 1 9
BITMAP
40
80
C0
C0
ENDCHAR

STARTCHAR a
ENCODING 97
SWIDTH 500 0
DWIDTH 10 0
BBX 8 9 1 0
BITMAP
3C
C6
C6
0E
36
46
C6
CE
77
ENDCHAR

STARTCHAR b
ENCODING 98
SWIDTH 552 0
DWIDTH 10 0
BBX 9 14 0 0
BITMAP
2000
E000
6000
6000
6000
6E00
7300
6180
6180
6180
6180
6100
6200
1C00
ENDCHAR

STARTCHAR c
ENCODING 99
SWIDTH 438 0
DWIDTH 8 0
BBX 7 9 0 0
BITMAP
1C
66
66
C0
C0
C0
C0
62
3C
ENDCHAR

STARTCHAR d
ENCODING 100
SWIDTH 552 0
DWIDTH 10 0
BBX 9 13 0 0
BITMAP
0100
0700
0300
0300
1B00
2700
4300
C300
C300
C300
C300
6700
3B80
ENDCHAR

STARTCHAR e
ENCODING 101
SWIDTH 438 0
DWIDTH 8 0
BBX 7 9 0 0
BITMAP
3C
66
C6
FE
C0
C0
C2
64
38
ENDCHAR

STARTCHAR f
ENCODING 102
SWIDTH 333 0
DWIDTH 6 0
BBX 7 14 0 0
BITMAP
1C
26
66
60
60
F8
60
60
60
60
60
60
60
F0
ENDCHAR

STARTCHAR g
ENCODING 103
SWIDTH 500 0
DWIDTH 10 0
BBX 9 13 0 -4
BITMAP
1C00
2380
6300
6300
6300
2200
3C00
4000
3F00
7F80
C180
C100
7E00
ENDCHAR

STARTCHAR h
ENCODING 104
SWIDTH 552 0
DWIDTH 10 0
BBX 9 14 0 0
BITMAP
2000
E000
6000
6000
6000
6E00
7300
6300
6300
6300
6300
6300
6300
F780
ENDCHAR

STARTCHAR i
ENCODING 105
SWIDTH 271 0
DWIDTH 5 0
BBX 4 14 0 0
BITMAP
60
60
00
00
00
20
E0
60
60
60
60
60
60
F0
ENDCHAR

STARTCHAR j
ENCODING 106
SWIDTH 271 0
DWIDTH 5 0
BBX 5 17 -2 -4
BITMAP
18
18
00
00
08
38
18
18
18
18
18
18
18
18
18
D0
E0
ENDCHAR

STARTCHAR k
ENCODING 107
SWIDTH 552 0
DWIDTH 10 0
BBX 9 14 0 0
BITMAP
2000
E000
6000
6000
6000
6700
6400
6800
7000
7800
6C00
6600
6300
F780
ENDCHAR

STARTCHAR l
ENCODING 108
SWIDTH 271 0
DWIDTH 5 0
BBX 4 14 0 0
BITMAP
20
E0
60
60
60
60
60
60
60
60
60
60
60
F0
ENDCHAR

STARTCHAR m
ENCODING 109
SWIDTH 823 0
DWIDTH 16 0
BBX 14 9 0 0
BITMAP
EE70
7398
6318
6318
6318
6318
6318
6318
F7BC
ENDCHAR

STARTCHAR n
ENCODING 110
SWIDTH 552 0
DWIDTH 10 0
BBX 9 9 0 0
BITMAP
EE00
7300
6300
6300
6300
6300
6300
6300
F780
ENDCHAR

STARTCHAR o
ENCODING 111
SWIDTH 552 0
DWIDTH 10 0
BBX 9 9 0 0
BITMAP
3E00
6300
C180
C180
C180
C180
C180
6300
3E00
ENDCHAR

STARTCHAR p
ENCODING 112
SWIDTH 552 0
DWIDTH 10 0
BBX 9 13 0 -4
BITMAP
EE00
7300
6180
6180
6180
6180
6180
7300
6C00
6000
6000
6000
F000
ENDCHAR

STARTCHAR q
ENCODING 113
SWIDTH 552 0
DWIDTH 10 0
BBX 9 13 0 -4
BITMAP
1D00
6300
6300
C300
C300
C300
C300
6700
3B00
0300
0300
0300
0780
ENDCHAR

STARTCHAR r
ENCODING 114
SWIDTH 385 0
DWIDTH 7 0
BBX 6 9 0 0
BITMAP
EC
74
60
60
60
60
60
60
F0
ENDCHAR

STARTCHAR s
ENCODING 115
SWIDTH 385 0
DWIDTH 7 0
BBX 6 9 0 0
BITMAP
74
CC
C4
E0
78
1C
8C
CC
B8
ENDCHAR

STARTCHAR t
ENCODING 116
SWIDTH 333 0
DWIDTH 6 0
BBX 5 12 0 0
BITMAP
20
20
60
F8
60
60
60
60
60
60
68
30
ENDCHAR

STARTCHAR u
ENCODING 117
SWIDTH 552 0
DWIDTH 10 0
BBX 9 9 0 0
BITMAP
E700
6300
6300
6300
6300
6300
6300
6700
3B80
ENDCHAR

STARTCHAR v
ENCODING 118
SWIDTH 500 0
DWIDTH 10 0
BBX 9 9 0 0
BITMAP
F380
6100
6100
3200
3200
1C00
1C00
0800
0800
ENDCHAR

STARTCHAR w
ENCODING 119
SWIDTH 719 0
DWIDTH 14 0
BBX 12 9 1 0
BITMAP
EF70
6620
6620
3340
3340
3740
1980
1980
0880
ENDCHAR

STARTCHAR x
ENCODING 120
SWIDTH 500 0
DWIDTH 10 0
BBX 9 9 0 0
BITMAP
F380
6100
3200
3400
0800
1600
2600
4300
E780
ENDCHAR

STARTCHAR y
ENCODING 121
SWIDTH 500 0
DWIDTH 10 0
BBX 9 13 0 -4
BITMAP
F380
6100
6100
3200
3200
3200
1C00
1C00
0800
0800
1000
D000
6000
ENDCHAR

STARTCHAR z
ENCODING 122
SWIDTH 437 0
DWIDTH 8 0
BBX 8 9 0 0
BITMAP
7F
46
4C
0C
18
30
31
61
FF
ENDCHAR

STARTCHAR braceleft
ENCODING 123
SWIDTH 479 0
DWIDTH 9 0
BBX 5 17 2 -3
BITMAP
08
10
20
60
60
60
60
40
80
40
60
60
60
60
20
10
08
ENDCHAR

STARTCHAR bar
ENCODING 124
SWIDTH 198 0
DWIDTH 4 0
BBX 1 16 1 -2
BITMAP
80
80
80
80
80
80
80
80
80
80
80
80
80
80
80
80
ENDCHAR

STARTCHAR braceright
ENCODING 125
SWIDTH 479 0
DWIDTH 9 0
BBX 5 17 2 -3
BITMAP
80
40
20
30
30
30
30
10
08
10
30
30
30
30
20
40
80
ENDCHAR

STARTCHAR asciitilde
ENCODING 126
SWIDTH 667 0
DWIDTH 10 0
BBX 10 3 0 4
BITMAP
3840
4C80
8700
ENDCHAR

STARTCHAR space
ENCODING 160
SWIDTH 250 0
DWIDTH 6 0
BBX 0 0 0 0
BITMAP
ENDCHAR

STARTCHAR afii10023
ENCODING 161
SWIDTH 667 0
DWIDTH 13 0
BBX 11 16 2 0
BITMAP
0900
0000
FFC0
6040
6040
6000
6100
6100
7F00
6100
6100
6000
6020
6020
6040
FFC0
ENDCHAR

STARTCHAR afii10051
ENCODING 162
SWIDTH 802 0
DWIDTH 15 0
BBX 14 13 0 0
BITMAP
FFE0
8C20
8C20
0C00
0DF0
0E18
0C0C
0C0C
0C0C
0C0C
0C0C
0C18
1E70
ENDCHAR

STARTCHAR afii10052
ENCODING 163
SWIDTH 626 0
DWIDTH 12 0
BBX 10 17 2 0
BITMAP
0400
0800
0000
FFC0
6040
6040
6000
6000
6000
6000
6000
6000
6000
6000
6000
6000
F000
ENDCHAR

STARTCHAR afii10053
ENCODING 164
SWIDTH 698 0
DWIDTH 13 0
BBX 11 14 1 0
BITMAP
0FA0
3060
6020
C020
C000
C000
FF00
C000
C000
C000
C000
6020
3040
0F80
ENDCHAR

STARTCHAR afii10054
ENCODING 165
SWIDTH 552 0
DWIDTH 10 0
BBX 9 14 1 0
BITMAP
3D00
6300
C100
C100
E000
7000
3C00
1E00
0700
0380
8180
8180
C300
BE00
ENDCHAR

STARTCHAR afii10055
ENCODING 166
SWIDTH 385 0
DWIDTH 7 0
BBX 4 14 1 0
BITMAP
F0
60
60
60
60
60
60
60
60
60
60
60
60
F0
ENDCHAR

STARTCHAR afii10056
ENCODING 167
SWIDTH 385 0
DWIDTH 7 0
BBX 4 16 1 0
BITMAP
90
00
F0
60
60
60
60
60
60
60
60
60
60
60
60
F0
ENDCHAR

STARTCHAR afii10057
ENCODING 168
SWIDTH 438 0
DWIDTH 8 0
BBX 6 14 1 0
BITMAP
3C
18
18
18
18
18
18
18
18
18
18
18
D0
E0
ENDCHAR

STARTCHAR afii10058
ENCODING 169
SWIDTH 958 0
DWIDTH 18 0
BBX 17 14 0 0
BITMAP
1FF000
086000
086000
086000
086000
086000
086000
087E00
086300
086180
086180
086180
D06300
E1FE00
ENDCHAR

STARTCHAR afii10059
ENCODING 170
SWIDTH 969 0
DWIDTH 18 0
BBX 16 14 1 0
BITMAP
F1E0
60C0
60C0
60C0
60C0
60C0
60C0
7FFC
60C6
60C3
60C3
60C3
60C6
F1FC
ENDCHAR

STARTCHAR afii10060
ENCODING 171
SWIDTH 812 0
DWIDTH 15 0
BBX 14 14 0 0
BITMAP
FFE0
8C20
8C20
0C00
0C00
0DF0
0E18
0C18
0C18
0C18
0C18
0C18
0C18
1E3C
ENDCHAR

STARTCHAR afii10061
ENCODING 172
SWIDTH 750 0
DWIDTH 14 0
BBX 13 17 2 0
BITMAP
0200
0400
0000
F060
60A0
6100
6100
6200
6400
7800
6C00
6600
6300
6180
60C0
6060
F0F8
ENDCHAR

STARTCHAR hyphen
ENCODING 173
SWIDTH 333 0
DWIDTH 6 0
BBX 5 1 1 4
BITMAP
F8
ENDCHAR

STARTCHAR afii10062
ENCODING 174
SWIDTH 731 0
DWIDTH 14 0
BBX 13 17 1 0
BITMAP
0840
0780
0000
F038
6010
6010
3020
3020
1840
0C80
0C80
0700
0300
0200
0200
3400
3800
ENDCHAR

STARTCHAR afii10145
ENCODING 175
SWIDTH 823 0
DWIDTH 16 0
BBX 12 17 2 -3
BITMAP
F0F0
6060
6060
6060
6060
6060
6060
6060
6060
6060
6060
6060
6060
FFF0
0700
0200
0200
ENDCHAR

STARTCHAR afii10017
ENCODING 176
SWIDTH 771 0
DWIDTH 15 0
BBX 14 14 0 0
BITMAP
0100
0300
0300
0580
0580
08C0
08C0
1060
1FE0
1060
2030
2030
4018
E03C
ENDCHAR

STARTCHAR afii10018
ENCODING 177
SWIDTH 646 0
DWIDTH 12 0
BBX 10 14 1 0
BITMAP
FF80
6080
6080
6000
6000
6000
6000
7F00
6180
60C0
60C0
60C0
6180
FF00
ENDCHAR

STARTCHAR afii10019
ENCODING 178
SWIDTH 667 0
DWIDTH 13 0
BBX 10 14 2 0
BITMAP
FF00
6180
60C0
60C0
60C0
6180
7F00
6180
60C0
60C0
60C0
60C0
6180
FF00
ENDCHAR

STARTCHAR afii10020
ENCODING 179
SWIDTH 626 0
DWIDTH 12 0
BBX 10 14 2 0
BITMAP
FFC0
6040
6040
6000
6000
6000
6000
6000
6000
6000
6000
6000
6000
F000
ENDCHAR

STARTCHAR afii10021
ENCODING 180
SWIDTH 747 0
DWIDTH 14 0
BBX 12 18 0 -4
BITMAP
1FF0
0860
0860
0860
0860
0860
1060
1060
1060
1060
2060
2060
4060
FFF0
C030
8030
8010
8010
ENDCHAR

STARTCHAR afii10022
ENCODING 181
SWIDTH 667 0
DWIDTH 13 0
BBX 11 14 2 0
BITMAP
FFC0
6040
6040
6000
6100
6100
7F00
6100
6100
6000
6020
6020
6040
FFC0
ENDCHAR

STARTCHAR afii10024
ENCODING 182
SWIDTH 997 0
DWIDTH 19 0
BBX 18 14 0 0
BITMAP
E1E1C0
D0C2C0
08C400
08C400
04C400
04C800
07F800
0CCC00
0CCC00
18C600
18C600
30C300
30C300
E1E1C0
ENDCHAR

STARTCHAR afii10025
ENCODING 183
SWIDTH 532 0
DWIDTH 10 0
BBX 8 14 1 0
BITMAP
BC
C6
83
83
03
03
1E
03
03
03
03
83
46
3C
ENDCHAR

STARTCHAR afii10026
ENCODING 184
SWIDTH 824 0
DWIDTH 16 0
BBX 12 14 2 0
BITMAP
F0F0
6060
60E0
6160
6160
6260
6260
6460
6460
6860
6860
7060
6060
F0F0
ENDCHAR

STARTCHAR afii10027
ENCODING 185
SWIDTH 824 0
DWIDTH 16 0
BBX 12 17 2 0
BITMAP
0880
0700
0000
F0F0
6060
60E0
6160
6160
6260
6260
6460
6460
6860
6860
7060
6060
F0F0
ENDCHAR

STARTCHAR afii10028
ENCODING 186
SWIDTH 750 0
DWIDTH 14 0
BBX 13 14 2 0
BITMAP
F060
60A0
6100
6100
6200
6400
7800
6C00
6600
6300
6180
60C0
6060
F0F8
ENDCHAR

STARTCHAR afii10029
ENCODING 187
SWIDTH 750 0
DWIDTH 14 0
BBX 13 14 0 0
BITMAP
1FF8
0830
0830
0830
0830
0830
0830
0830
0830
0830
0830
0830
D030
E078
ENDCHAR

STARTCHAR afii10030
ENCODING 188
SWIDTH 990 0
DWIDTH 19 0
BBX 15 14 2 0
BITMAP
E00E
701C
701C
582C
582C
582C
4C4C
4C4C
4C4C
468C
468C
430C
430C
E21E
ENDCHAR

STARTCHAR afii10031
ENCODING 189
SWIDTH 823 0
DWIDTH 16 0
BBX 12 14 2 0
BITMAP
F0F0
6060
6060
6060
6060
6060
7FE0
6060
6060
6060
6060
6060
6060
F0F0
ENDCHAR

STARTCHAR afii10032
ENCODING 190
SWIDTH 771 0
DWIDTH 15 0
BBX 13 14 1 0
BITMAP
0F80
3060
6030
6030
C018
C018
C018
C018
C018
C018
6030
6030
3060
0F80
ENDCHAR

STARTCHAR afii10033
ENCODING 191
SWIDTH 818 0
DWIDTH 16 0
BBX 12 14 2 0
BITMAP
FFF0
6060
6060
6060
6060
6060
6060
6060
6060
6060
6060
6060
6060
F0F0
ENDCHAR

STARTCHAR afii10034
ENCODING 192
SWIDTH 604 0
DWIDTH 11 0
BBX 9 14 2 0
BITMAP
FC00
6300
6180
6180
6180
6180
6300
7C00
6000
6000
6000
6000
6000
F000
ENDCHAR

STARTCHAR afii10035
ENCODING 193
SWIDTH 719 0
DWIDTH 14 0
BBX 12 14 1 0
BITMAP
0FD0
3030
6010
6010
C000
C000
C000
C000
C000
C000
6000
6010
3060
0F80
ENDCHAR

STARTCHAR afii10036
ENCODING 194
SWIDTH 667 0
DWIDTH 13 0
BBX 12 14 0 0
BITMAP
FFF0
8610
8610
0600
0600
0600
0600
0600
0600
0600
0600
0600
0600
0F00
ENDCHAR

STARTCHAR afii10037
ENCODING 195
SWIDTH 731 0
DWIDTH 14 0
BBX 13 14 1 0
BITMAP
F038
6010
6010
3020
3020
1840
0C80
0C80
0700
0300
0200
0200
3400
3800
ENDCHAR

STARTCHAR afii10038
ENCODING 196
SWIDTH 869 0
DWIDTH 17 0
BBX 14 14 1 0
BITMAP
0780
0300
1FE0
6318
C30C
C30C
C30C
C30C
C30C
C30C
6318
1FE0
0300
0780
ENDCHAR

STARTCHAR afii10039
ENCODING 197
SWIDTH 771 0
DWIDTH 15 0
BBX 14 14 0 0
BITMAP
F83C
3010
1820
0C40
0C40
0680
0300
0300
0580
08C0
08C0
1060
2030
F07C
ENDCHAR

STARTCHAR afii10040
ENCODING 198
SWIDTH 823 0
DWIDTH 16 0
BBX 12 17 2 -3
BITMAP
F0F0
6060
6060
6060
6060
6060
6060
6060
6060
6060
6060
6060
6060
FFF0
0030
0010
0010
ENDCHAR

STARTCHAR afii10041
ENCODING 199
SWIDTH 747 0
DWIDTH 14 0
BBX 11 14 1 0
BITMAP
F1E0
60C0
60C0
60C0
60C0
60C0
60C0
31C0
1EC0
00C0
00C0
00C0
00C0
01E0
ENDCHAR

STARTCHAR afii10042
ENCODING 200
SWIDTH 1122 0
DWIDTH 21 0
BBX 18 14 2 0
BITMAP
F1E3C0
60C180
60C180
60C180
60C180
60C180
60C180
60C180
60C180
60C180
60C180
60C180
60C180
FFFFC0
ENDCHAR

STARTCHAR afii10043
ENCODING 201
SWIDTH 1122 0
DWIDTH 21 0
BBX 18 17 2 -3
BITMAP
F1E3C0
60C180
60C180
60C180
60C180
60C180
60C180
60C180
60C180
60C180
60C180
60C180
60C180
FFFFC0
0000C0
000040
000040
ENDCHAR

STARTCHAR afii10044
ENCODING 202
SWIDTH 757 0
DWIDTH 14 0
BBX 13 14 0 0
BITMAP
FE00
8C00
8C00
0C00
0C00
0C00
0C00
0FE0
0C30
0C18
0C18
0C18
0C30
1FE0
ENDCHAR

STARTCHAR afii10045
ENCODING 203
SWIDTH 981 0
DWIDTH 19 0
BBX 15 14 2 0
BITMAP
F01E
600C
600C
600C
600C
600C
600C
7F0C
618C
60CC
60CC
60CC
618C
FF1E
ENDCHAR

STARTCHAR afii10046
ENCODING 204
SWIDTH 646 0
DWIDTH 12 0
BBX 9 14 2 0
BITMAP
F000
6000
6000
6000
6000
6000
6000
7E00
6300
6180
6180
6180
6300
FE00
ENDCHAR

STARTCHAR afii10047
ENCODING 205
SWIDTH 698 0
DWIDTH 13 0
BBX 11 14 1 0
BITMAP
BE00
C180
80C0
8060
0060
0060
0FE0
0060
0060
0060
0060
80C0
6180
1E00
ENDCHAR

STARTCHAR afii10048
ENCODING 206
SWIDTH 1104 0
DWIDTH 21 0
BBX 18 14 2 0
BITMAP
F07C00
618300
630180
630180
6600C0
6600C0
7E00C0
6600C0
6600C0
6600C0
630180
630180
618300
F07C00
ENDCHAR

STARTCHAR afii10049
ENCODING 207
SWIDTH 749 0
DWIDTH 15 0
BBX 13 14 1 0
BITMAP
03F8
0C30
1830
1830
1830
1830
0C30
03F0
0330
0630
0C30
1830
3030
F078
ENDCHAR

STARTCHAR afii10065
ENCODING 208
SWIDTH 500 0
DWIDTH 10 0
BBX 8 9 1 0
BITMAP
3C
C6
C6
0E
36
46
C6
CE
77
ENDCHAR

STARTCHAR afii10066
ENCODING 209
SWIDTH 552 0
DWIDTH 10 0
BBX 9 14 0 0
BITMAP
0080
1F00
3E00
4000
4000
BE00
E300
C180
C180
C180
C180
C180
6300
3E00
ENDCHAR

STARTCHAR afii10067
ENCODING 210
SWIDTH 500 0
DWIDTH 10 0
BBX 8 9 0 0
BITMAP
FE
63
63
63
7E
63
63
63
FC
ENDCHAR

STARTCHAR afii10068
ENCODING 211
SWIDTH 443 0
DWIDTH 8 0
BBX 7 9 0 0
BITMAP
FE
62
60
60
60
60
60
60
F0
ENDCHAR

STARTCHAR afii10069
ENCODING 212
SWIDTH 531 0
DWIDTH 10 0
BBX 10 11 -1 -2
BITMAP
3FC0
1180
1180
1180
1180
1180
2180
2180
FFC0
8040
8040
ENDCHAR

STARTCHAR afii10070
ENCODING 213
SWIDTH 438 0
DWIDTH 8 0
BBX 7 9 0 0
BITMAP
3C
66
C6
FE
C0
C0
C2
64
38
ENDCHAR

STARTCHAR afii10072
ENCODING 214
SWIDTH 716 0
DWIDTH 14 0
BBX 12 9 1 0
BITMAP
CF30
A650
1640
1680
0F00
36C0
6660
6660
CF30
ENDCHAR

STARTCHAR afii10073
ENCODING 215
SWIDTH 417 0
DWIDTH 8 0
BBX 6 9 1 0
BITMAP
F8
8C
8C
30
18
0C
0C
98
70
ENDCHAR

STARTCHAR afii10074
ENCODING 216
SWIDTH 565 0
DWIDTH 11 0
BBX 10 9 0 0
BITMAP
F3C0
6180
6380
6580
6980
7180
6180
6180
F3C0
ENDCHAR

STARTCHAR afii10075
ENCODING 217
SWIDTH 565 0
DWIDTH 11 0
BBX 10 12 0 0
BITMAP
1100
0E00
0000
F3C0
6180
6380
6580
6980
7180
6180
6180
F3C0
ENDCHAR

STARTCHAR afii10076
ENCODING 218
SWIDTH 525 0
DWIDTH 10 0
BBX 9 9 0 0
BITMAP
F300
6500
6400
7800
6C00
6600
6600
6300
F380
ENDCHAR

STARTCHAR afii10077
ENCODING 219
SWIDTH 530 0
DWIDTH 10 0
BBX 10 9 -1 0
BITMAP
3FC0
1180
1180
1180
1180
1180
1180
D180
63C0
ENDCHAR

STARTCHAR afii10078
ENCODING 220
SWIDTH 666 0
DWIDTH 13 0
BBX 11 9 1 0
BITMAP
E0E0
60C0
71C0
59C0
5AC0
5AC0
4CC0
4CC0
E5E0
ENDCHAR

STARTCHAR afii10079
ENCODING 221
SWIDTH 565 0
DWIDTH 11 0
BBX 10 9 0 0
BITMAP
F3C0
6180
6180
6180
7F80
6180
6180
6180
F3C0
ENDCHAR

STARTCHAR afii10080
ENCODING 222
SWIDTH 552 0
DWIDTH 10 0
BBX 9 9 0 0
BITMAP
3E00
6300
C180
C180
C180
C180
C180
6300
3E00
ENDCHAR

STARTCHAR afii10081
ENCODING 223
SWIDTH 565 0
DWIDTH 11 0
BBX 10 9 0 0
BITMAP
FFC0
6180
6180
6180
6180
6180
6180
6180
F3C0
ENDCHAR

STARTCHAR afii10082
ENCODING 224
SWIDTH 552 0
DWIDTH 10 0
BBX 9 13 0 -4
BITMAP
EE00
7300
6180
6180
6180
6180
6180
7300
6C00
6000
6000
6000
F000
ENDCHAR

STARTCHAR afii10083
ENCODING 225
SWIDTH 438 0
DWIDTH 8 0
BBX 7 9 0 0
BITMAP
1C
66
66
C0
C0
C0
C0
62
3C
ENDCHAR

STARTCHAR afii10084
ENCODING 226
SWIDTH 476 0
DWIDTH 9 0
BBX 8 9 0 0
BITMAP
FF
99
18
18
18
18
18
18
3C
ENDCHAR

STARTCHAR afii10085
ENCODING 227
SWIDTH 500 0
DWIDTH 10 0
BBX 9 13 0 -4
BITMAP
F380
6100
6100
3200
3200
3200
1C00
1C00
0800
0800
1000
D000
6000
ENDCHAR

STARTCHAR afii10086
ENCODING 228
SWIDTH 667 0
DWIDTH 13 0
BBX 12 18 0 -4
BITMAP
0200
0E00
0600
0600
0600
3FC0
6660
C630
C630
C630
C630
C630
6F60
36C0
0600
0600
0600
0F00
ENDCHAR

STARTCHAR afii10087
ENCODING 229
SWIDTH 500 0
DWIDTH 10 0
BBX 9 9 0 0
BITMAP
F380
6100
3200
3400
0800
1600
2600
4300
E780
ENDCHAR

STARTCHAR afii10088
ENCODING 230
SWIDTH 567 0
DWIDTH 11 0
BBX 10 11 0 -2
BITMAP
F3C0
6180
6180
6180
6180
6180
6180
6180
FFC0
0040
0040
ENDCHAR

STARTCHAR afii10089
ENCODING 231
SWIDTH 531 0
DWIDTH 10 0
BBX 9 9 0 0
BITMAP
F780
6300
6300
6300
6700
3B00
0300
0300
0780
ENDCHAR

STARTCHAR afii10090
ENCODING 232
SWIDTH 810 0
DWIDTH 15 0
BBX 14 9 0 0
BITMAP
F7BC
6318
6318
6318
6318
6318
6318
6318
FFFC
ENDCHAR

STARTCHAR afii10091
ENCODING 233
SWIDTH 810 0
DWIDTH 15 0
BBX 14 11 0 -2
BITMAP
F7BC
6318
6318
6318
6318
6318
6318
6318
FFFC
0004
0004
ENDCHAR

STARTCHAR afii10092
ENCODING 234
SWIDTH 556 0
DWIDTH 11 0
BBX 10 9 0 0
BITMAP
7C00
9800
9800
1800
1F80
18C0
18C0
18C0
3F80
ENDCHAR

STARTCHAR afii10093
ENCODING 235
SWIDTH 719 0
DWIDTH 14 0
BBX 13 9 0 0
BITMAP
F078
6030
6030
6030
7E30
6330
6330
6330
FE78
ENDCHAR

STARTCHAR afii10094
ENCODING 236
SWIDTH 491 0
DWIDTH 9 0
BBX 8 9 0 0
BITMAP
F0
60
60
60
7E
63
63
63
FE
ENDCHAR

STARTCHAR afii10095
ENCODING 237
SWIDTH 445 0
DWIDTH 8 0
BBX 6 9 1 0
BITMAP
E0
98
8C
0C
7C
0C
0C
88
70
ENDCHAR

STARTCHAR afii10096
ENCODING 238
SWIDTH 783 0
DWIDTH 15 0
BBX 14 9 0 0
BITMAP
F1F0
6318
660C
660C
7E0C
660C
660C
6318
F1F0
ENDCHAR

STARTCHAR afii10097
ENCODING 239
SWIDTH 487 0
DWIDTH 9 0
BBX 9 9 -1 0
BITMAP
3F80
6300
6300
3300
1F00
1B00
3300
6300
C780
ENDCHAR

STARTCHAR afii61352
ENCODING 240
SWIDTH 1000 0
DWIDTH 19 0
BBX 18 13 0 0
BITMAP
781C00
1C3C00
1C2000
162780
172CC0
132CC0
11ACC0
11ACC0
10ECC0
10E780
106000
F02000
E02FC0
ENDCHAR

STARTCHAR afii10071
ENCODING 241
SWIDTH 438 0
DWIDTH 8 0
BBX 7 12 0 0
BITMAP
24
00
00
3C
66
C6
FE
C0
C0
C2
64
38
ENDCHAR

STARTCHAR afii10099
ENCODING 242
SWIDTH 493 0
DWIDTH 10 0
BBX 8 17 0 -3
BITMAP
20
E0
60
FC
60
6E
73
63
63
63
63
63
63
F3
03
02
0C
ENDCHAR

STARTCHAR afii10100
ENCODING 243
SWIDTH 443 0
DWIDTH 8 0
BBX 7 13 0 0
BITMAP
10
20
00
00
FE
62
60
60
60
60
60
60
F0
ENDCHAR

STARTCHAR afii10101
ENCODING 244
SWIDTH 445 0
DWIDTH 8 0
BBX 6 9 1 0
BITMAP
3C
44
C4
C0
F0
C0
C0
44
38
ENDCHAR

STARTCHAR afii10102
ENCODING 245
SWIDTH 385 0
DWIDTH 7 0
BBX 6 9 0 0
BITMAP
74
CC
C4
E0
78
1C
8C
CC
B8
ENDCHAR

STARTCHAR afii10103
ENCODING 246
SWIDTH 271 0
DWIDTH 5 0
BBX 4 14 0 0
BITMAP
60
60
00
00
00
20
E0
60
60
60
60
60
60
F0
ENDCHAR

STARTCHAR afii10104
ENCODING 247
SWIDTH 271 0
DWIDTH 5 0
BBX 4 11 0 0
BITMAP
90
00
20
E0
60
60
60
60
60
60
F0
ENDCHAR

STARTCHAR afii10105
ENCODING 248
SWIDTH 271 0
DWIDTH 5 0
BBX 5 17 -2 -4
BITMAP
18
18
00
00
08
38
18
18
18
18
18
18
18
18
18
D0
E0
ENDCHAR

STARTCHAR afii10106
ENCODING 249
SWIDTH 765 0
DWIDTH 15 0
BBX 14 9 0 0
BITMAP
3FC0
1180
1180
1180
11F8
118C
118C
D18C
E3F8
ENDCHAR

STARTCHAR afii10107
ENCODING 250
SWIDTH 771 0
DWIDTH 15 0
BBX 14 9 0 0
BITMAP
F3C0
6180
6180
6180
7FF8
618C
618C
618C
F3F8
ENDCHAR

STARTCHAR afii10108
ENCODING 251
SWIDTH 546 0
DWIDTH 10 0
BBX 9 14 0 0
BITMAP
2000
E000
6000
FC00
6000
6E00
7300
6300
6300
6300
6300
6300
6300
F780
ENDCHAR

STARTCHAR afii10109
ENCODING 252
SWIDTH 525 0
DWIDTH 10 0
BBX 9 12 0 0
BITMAP
0400
0800
0000
F300
6500
6400
7800
6C00
6600
6600
6300
F380
ENDCHAR

STARTCHAR section
ENCODING 253
SWIDTH 385 0
DWIDTH 7 0
BBX 7 18 0 -4
BITMAP
18
2C
6C
60
60
30
58
CC
C6
C6
66
34
18
0C
0C
6C
68
30
ENDCHAR

STARTCHAR afii10110
ENCODING 254
SWIDTH 500 0
DWIDTH 10 0
BBX 9 16 0 -4
BITMAP
2200
1C00
0000
F380
6100
6100
3200
3200
3200
1C00
1C00
0800
0800
1000
D000
6000
ENDCHAR

STARTCHAR afii10193
ENCODING 255
SWIDTH 552 0
DWIDTH 10 0
BBX 9 11 0 -2
BITMAP
F780
6300
6300
6300
6300
6300
6300
6300
FF80
0800
0800
ENDCHAR
ENDFONT
